# xmcd
#
# Track frame offsets: 
#        150
#        3450
#        20350
#        32832
#        45502
#        61310
#        75862
#        95875
#        112900
#        126685
#        144825
#        162812
#        175450
#        186900
#
# Disc length: 2701 seconds
#
# Revision: 0
# Processed by: cddbd v1.5.2PL0 Copyright (c) Steve Scherf et al.
# Submitted via: ExactAudioCopyFreeDBPlugin 1.0
#
DISCID=b20a8b0e
DTITLE=The Cactus Blossoms - Live At The Turf Club
DYEAR=2013
DGENRE=Country
TTITLE0=Introduction
TTITLE1=San Antonio Rose
TTITLE2=Down South In New Orleans
TTITLE3=A Little Unfair
TTITLE4=Happy Man On A Gloomy Day
TTITLE5=I Overlooked An Orchid
TTITLE6=Change Your Ways Or Die (The Buffalo Song)
TTITLE7=Please Don't Sneak Around
TTITLE8=Crazy Arms
TTITLE9=Almost Out Of Everything
TTITLE10=Travelin' Blues
TTITLE11=Lost John Dean
TTITLE12=Slow Poison
TTITLE13=Yes Sir!
EXTD=
EXTT0=
EXTT1=
EXTT2=
EXTT3=
EXTT4=
EXTT5=
EXTT6=
EXTT7=
EXTT8=
EXTT9=
EXTT10=
EXTT11=
EXTT12=
EXTT13=
PLAYORDER=
